# xmcd CD database file
#
# Track frame offsets:
#	150
#	10528
#	26190
#	40840
#	55678
#	69533
#	82478
#	94813
#	107073
#	124820
#
# Disc length: 1822 seconds
#
# Revision: 2
# Processed by: cddbd v1.5.2PL0 Copyright (c) Steve Scherf et al.
# Submitted via: CDex 1.70beta2
#
DISCID=82071c0a
DTITLE=Merle Haggard - 501 Blues
DYEAR=1989
DGENRE=Country
TTITLE0=Broken Friend
TTITLE1=Losin' In Las Vegas
TTITLE2=5:01 Blues
TTITLE3=Someday We'll Know
TTITLE4=Wouldn't That Be Something
TTITLE5=Sea Of Heartbreak
TTITLE6=A Better Love Next Time
TTITLE7=If You Want To Be My Woman
TTITLE8=A Thousand Lies Ago
TTITLE9=Somewhere Down The Line
EXTD=3 YEAR: 1989
EXTT0=
EXTT1=
EXTT2=
EXTT3=
EXTT4=
EXTT5=
EXTT6=
EXTT7=
EXTT8=
EXTT9=
PLAYORDER=
